<svg xmlns="http://www.w3.org/2000/svg" width="64" height="64" viewBox="0 0 24 24" role="img" aria-label="Favicon">
  <path d="M9 4c-1.7 0-2.2 1-2.2 2.1v1.4c0 1.2-.8 2.1-2.1 2.1 1.3 0 2.1.9 2.1 2.1V15c0 1.1.5 2.1 2.2 2.1"
        fill="none" stroke="currentColor" stroke-width="2.2" stroke-linecap="round" stroke-linejoin="round"/>
  <path d="M15 4c1.7 0 2.2 1 2.2 2.1v1.4c0 1.2.8 2.1 2.1 2.1-1.3 0-2.1.9-2.1 2.1V15c0 1.1-.5 2.1-2.2 2.1"
        fill="none" stroke="currentColor" stroke-width="2.2" stroke-linecap="round" stroke-linejoin="round"/>
  <circle cx="12" cy="12" r="2.6" fill="currentColor"/>
</svg>
